<svg xmlns="http://www.w3.org/2000/svg" viewBox="0 0 84 81">
  <path d="M46.3 80.5c-9.9-.5-18-1.2-25.7-4.5a23.6 23.6 0 01-8.1-5.8c-3-3.3-6.1-6.7-8.2-10.7-2-3.8-3.6-7.6-3.4-12.1.2-4.3.1-8.7.1-13-.1-4.6 1.3-8.7 3.4-12.7 2-3.8 4.6-7.2 7.5-10.3a20 20 0 014.8-3.9 77 77 0 0116-6.6c2-.6 4.1-.7 6.1-.2l1.6.3c3.6.2 7.2.2 10.8.8 4.6.8 9.3.9 13.3 3.9 1.9 1.5 4.4 2.1 6.4 3.4 3.8 2.5 6.1 6.3 7.7 10.5.3.7.4 1.4.8 2 2.1 3.7 2.8 7.8 3.4 11.9.3 2 .9 4 .7 5.9-.5 6-.7 12.2-3.5 17.7A37.3 37.3 0 0155.2 79c-3.6.8-7 1.8-8.9 1.5zm23.5-65.3c-4.1-2.2-7.7-4.3-11.5-6-1.5-.7-3.3-.7-5-1l-1.1-.1L42.3 7a88 88 0 00-5.1-.5c-.6 0-1.3-.1-1.8.1-4.9 1.9-9.4 4.8-14.6 5.6-.3 0-.7.3-1 .5-6.4 3.6-10.5 9-12.8 15.8-.5 1.4-1.1 3-.6 4.6 1-1.3 1.8-2.7 2.6-4.1a22.6 22.6 0 0115.6-12.8c4.3-.9 8.4-.7 11.4 3 1.4 1.7 2.4 3.9 2.9 6a30 30 0 01-.5 16c-1.7 5.2-2.1 10.5.6 15.5.8 1.6 1.8 3.2 2.9 4.6 3.7 4.5 8.8 6.4 14.4 7.4.3.1.7-.1 1.1-.1l4.8.3c.5 0 1.1 0 1.5-.2 7.3-3.7 9.7-10.5 8.1-18a22 22 0 00-4.6-8.5c-3.7-4.7-5.1-10-5.2-15.9-.1-5.1 1.8-8.5 6.6-10.3.1-.2.3-.3 1.2-.8zM51.6 73.6l-2.8-1.3c-2.6-1.3-5.2-2.6-7.6-4.1-3-1.8-4.9-4.9-6.5-7.9a22.2 22.2 0 01-2.8-7.8c-.6-4.8 0-9.5 1.5-14.2 1.5-4.5 1.4-9.3-.3-13.8-1.1-2.8-2.6-3.9-5.6-3.6-4.8.5-9 2.3-11.7 6.5-3.2 5.1-6.1 10.3-9 15.4-.3.6-.5 1.4-.6 2.1-.1 2.8-.2 5.6 1.1 8.2.8 1.5 1.5 3.1 2.5 4.5 2.8 4.3 5.8 8.5 10.1 11.1a35 35 0 0016.4 5l3 .3c3.9.7 7.9.9 12.3-.4zM76 50.5a40.1 40.1 0 00-4.2-31.9l-3.5 1.9c-1.1.7-2.1 1.6-2.1 2.9-.2 5.3-.1 10.5 3.4 15 .9 1.1 1.6 2.4 2.4 3.6a33 33 0 014 8.5z"/>
  <path d="M44.5 57.7l1.1.1 6 4.9c-1.6 1.7-2.9.3-3.9-.4-1.6-1-3.2-2.2-3.2-4.6zM52.6 11.9c-2.6.4-4.5-.4-6.7-1.1.7-1.6 1.9-1.7 2.9-1.4 1.3.3 3.1.1 3.8 2.5zM57.6 13.5c-.7 0-1.5.2-2.2-.1-.4-.1-.7-.8-1.1-1.3.5-.3 1.1-.9 1.5-.8.7.2 1.4.8 2.1 1.2l-.3 1zM59 63.6c-1 .7-1.4 1.2-2 1.3-.3.1-1.1-.7-1-.8.2-.5.6-1.2 1-1.3.3 0 .9.4 2 .8zM17.8 62.8c-.6-.1-1.1-.1-1.4-.3-2.1-1-5.4-6.5-5.2-8.8 0-.5.4-1.1.8-1.3.3-.1 1.1.2 1.3.5l4.4 8.3.1 1.6z"/>
</svg>
