<svg xmlns="http://www.w3.org/2000/svg" viewBox="0 0 150 77">
  <path d="M8.9 47c3.3-4 5.2-8.7 6.7-13.6 1-3.3 2.5-6.4 3.7-9.6.5-1.5.9-3.1 1.1-4.7.4-2.8 1.7-5.1 3.9-6.9 1.1-.9 2.4-1.7 3.4-2.7 3.5-3.2 8-4.1 12.3-5.3 2.5-.7 5.1-1.3 7.7-1.6A146.6 146.6 0 0176.1.5c3.8.1 7.5.7 11.3 1.1l3.5.3 7.8.8c3.4.3 6.8.7 10.3.7 2.6 0 4.9.5 7 1.8a238.5 238.5 0 018.9 6c1.6 3.3 4.1 6.2 4.8 10a43.1 43.1 0 007.1 16.8l1 1.6a4.6 4.6 0 003.1 2.3c6.4 1.7 9.3 6.6 7.7 13a6.8 6.8 0 01-3.2 4.5A201.6 201.6 0 01118 71.5c-6.5 1.6-13 3.3-19.5 4.5-3.5.7-7.2.5-10.8.7l-5.7.1c-6 0-11.9.2-17.9 0A98.2 98.2 0 0145.4 74a41 41 0 00-6.9-1c-4.9-.2-9.7-.9-14.3-2.6-2-.8-4.1-1.2-6.2-1.8A34 34 0 012.2 58.1c-1.7-1.9-1.5-4.4-.5-6.4C3 49 5 47 8.4 47h.5zm116.8-19.4a35.7 35.7 0 01-21.5 9.7c-3.6.5-7.1 1.1-10.7 1.5-4.2.5-8.4 1-12.6 1.3-2.8.2-5.6-.1-8.4.2-6.7.7-13.3.8-20-.2-2.5-.4-5-.5-7.5-1.1-3.8-.9-7.5-2.1-11.2-3.3-4.4-1.4-8.4-3.4-10.6-7.8l-.5-.2-6.9 19.6c1.9 1.4 4.4 2.2 6.8 3.2 2.3.9 4.9 1.4 7.4 3.1-3.3 1.6-6 .3-8.5-.6-2.7-1-5.2-2.3-8-3.5L12 52.4l8.1 2.4c2.9.9 5.8 2 8.8 2.7 5.4 1.2 10.8 2.1 16.2 3.2 4.8 1 9.6 1.6 14.5 1.9 5.3.3 10.7.5 16 1.2 7.3 1 14.5 0 21.5-1.6 8-1.8 15.8-4.4 23.7-6.7 2.2-.6 4.3-1.4 6.4-2.1l11-3.8-3.1-4.2c-2.7 1.2-5.1 2.5-7.7 3.4-3.8 1.3-7.6 2.4-11.4 3.4-1.2.3-2.7.7-3.9-.9.6-.5 1.1-1 1.7-1.3l4.5-1.9 13.8-5.5.6-.6-1.3-1.6c-3.9 1.4-7.5 3.7-11.9 2.2 2.7-3.1 7.4-2.3 10.3-5.2l-1.6-2.7c-1 .3-1.8.7-2.6.7-.5 0-1.3-.4-1.5-.8-.2-.4.3-1.2.7-1.5.7-.6 1.6-1 2.5-1.5l-.7-2.1-.9-1.9zm-86.5 4.3l3-2.3c7-4.6 14.8-7.1 23-8.4 5.6-.9 11.3-1 17-.9a69 69 0 0121.7 4.1c2.7.9 5.4 2.1 7.6 4.1.5.4 1.3.8 1.9.7 2.4-.7 4.7-1.8 6.5-3.8-4.2-2.8-8.2-5.5-13-6.7-1.1-.3-2.1-.5-3.1-.9-.4-.2-1-.7-.9-1.1.1-.4.6-.8 1-1 .4-.2.9-.1 1.3-.1 3.8-.1 7.1 1.3 10.2 3.1 2 1.1 3.9 2.4 5.9 3.6 1.2-2.5 1.1-4.7-.5-6.6a16.2 16.2 0 00-9-5.6c-4-1-8-1.5-12.1-1.6l-2.4-.3-7.5-.8-3.2-.3c-4.6-.3-9.1-1.5-13.8-1.2-2 .1-4 .5-5.9.4-10.1-.4-20 1.5-29.7 3.9-4.8 1.2-8.5 4-11.2 8-.6.9-1.4 1.9-.6 3.3 3.3-4.1 7.3-6.9 11.9-8.9 1-.4 2.1-1.1 3.3-.1-.6 1.6-2 2.1-3.1 2.9-2.5 1.8-5.1 3.5-7.5 5.4-1.4 1.1-2.6 2.4-2.8 4.3.6-.3 1-.8 1.4-1.2l4.6-4.6c.9-.8 2-1.4 3.7-.6l-2.5 2.4c-1.7 1.8-3.4 3.5-5 5.4-.5.5-.8 1.3.3 1.7 5.4-5.4 5.4-5.4 8.1-4.9l-6.7 6.2c3.4.9 6 1.7 8.1 2.4zM6.6 51.4c-2.5 2.6-2.5 4.9 0 6.7 3.7 2.8 7.6 5.3 12.2 6.4 2.9.7 5.7 1.7 8.6 2.3 2.7.6 5.5 1.1 8.2 1.5 1 .2 2 0 3 .3 4.5 1.3 9 1.9 13.6 2.3 3.8.3 7.5 1.1 11.3 1.2 9.1.2 18.2 0 27.4 0l.8-.1c9.5-.9 18.6-3.5 27.8-6 1.5-.4 3-1.3 4.5-2l7.9-3.5c3.5-1.6 7.1-3.1 10.6-4.9 2-1 2.3-2.9 2.1-4.9-.2-2.1-.8-2.9-2.9-3.8l.6 2.4c.9 2.4.4 3.8-1.9 4.8a56 56 0 01-6.8 2.6l-19.1 6c-7.6 2.4-15.2 4.6-23.1 5.8-5.6.8-11.1 1-16.8.4-5.9-.6-11.9-.8-17.9-1.2-1.7-.1-3.4-.5-5.1-.8l-2.6-.5c-4.9-.8-9.8-1.8-14.7-2.5-5.1-.7-10-2.4-14.9-3.9-3.4-1-6.7-2.2-9.9-3.5-2.3-.7-4.1-2-2.9-5.1zm38.2-17.9l3.7.7 5.6.6c1.6.2 3.2.5 4.8.5l21.9-.6c2.6-.1 5.2-.4 7.8-.7l15.5-2.1 1.7-.3c-12.3-8.3-42.9-8.4-61 1.9z"/>
  <path d="M49.8 44.9c1-1.2 2.2-1 3.4-.9 5 .6 9.9.6 14.9-.1 2.8-.4 5.6-.3 8.4-.6 4.6-.4 9.2-.7 13.7-1.2 1.3-.1 2.5-.4 3.7-.6.6-.1 1.2-.3 1.9-.3 4.2-.3 5.1.3 6 4.4.5 2.5 1.2 5 .6 7.7-.4 1.9-1.2 3-2.8 3.4-2.6.6-5.3 1.1-8 1.3-6.8.6-13.7.2-20.6 1.2-2.5.4-5-.3-7.6-.4a77 77 0 00-6.8 0c-3.8.2-7.1-.9-10.3-2.8-.7-3.3-.1-11 .9-12.6 1.9 1.5 2.1 2.6 1.4 11.4 3.9 1.4 8 .8 12.1.8H65l8.6-.4c4.7-.2 9.4-.6 14.1-.6 4.3 0 8.5-.5 12.6-1.8l-1.5-7.3c-1 0-2.1-.3-3.1-.1-5.2.8-10.4 1-15.7 1.1-5.5.2-11 .9-16.5 1.1a70 70 0 01-10.2-.7 4.3 4.3 0 01-3.5-2z"/>
  <path d="M96.3 51.7c-.8-1-1.6-1.6-1.7-2.3-.1-1 .6-1.7 1.7-1.7 1 0 1.8.7 1.7 1.6-.2.7-.9 1.3-1.7 2.4zM54.8 51.2c-1.2.7-1.8 1.4-2.4 1.3-.5 0-1.3-.7-1.4-1.3-.2-.9.5-1.6 1.4-1.5.7.2 1.3.8 2.4 1.5z"/>
</svg>
