<svg xmlns="http://www.w3.org/2000/svg" viewBox="0 0 290 229">
  <path d="M93.6 213.4c-18 0-2-4-4-6.5-1.7-2 1.2-6 5-6.6 2.7-.5 3-.7 1.7-1.4-3-1.3-4 1.6-6.4-2-2-3.2-4.6-1.6-4.2 2.4.3 2-.1 2.6-1.9 2.9-3.6.5-7.3 7.2-4 7.2.7 0 1.8-1.4 2.4-3 1.4-3.7 5-4.2 3.2-.8-2 3.7.5 4.4-5 5.3-9.3 1.6-6.1 8.1-8.6 10.6-.9.9-1 .6-.5-1.1.7-3-6.5-2.2-10.8 1.3-11.7 9.1 17.7-3.6 6.1 3.3-4.3 2.6-3.3 3.7-1.3 2.9 1-.4 13-3.8 10.8-7.5-.4-.5 0-1 1-1 .8 0 3-1 4.8-2.4 2.8-2 4.1-2.3 11.9-2 11.6.2 11.8-1.6-.2-1.6zM149.8 223.5c-4-2.2-5.9 1.3-2.5 2.2 3.4.9 8.2.7 8.2-.4 0-1.5-2.4 0-5.7-1.8zM121.9 224.4c.4 0 .5-.4.2-1-2.5-4-46.5 2.5-.2 1zM126.6 223c-7.7-.8 4.9 3.8 7.5 1.1 1-1-3.4-.8-7.5-1.2zM136.2 223.9c.4 1 1.6 1.5 3.7 1.3 9.2-1-5.1-5-3.7-1.3z"/>
  <path d="M246 170.2c-2.7 0-6.6.4-8.7.7-7.8 1.3-16.3-5.7-8.7-7.2 4.3-.8 4.7-3.3.4-2.6-3 .5-3.5.2-4.6-2-1.5-3.5-3.9-3.5-3.9-.2 0 3.5-2 1.9-1.3-.2 1.2-3-3.5-2.4-.7-4.2 3.3-2.1 3.8-10.1.7-10.1-6.2 0-2.6-2.7 4.5-3.4 6.7-.6 13.8-3.5 13.8-5.5 0-7.2-19 .2-29 1-1 0-1 .2-.2.5 3.6 1.5.9 2.3-12.4 3.7-1.2 0-2.5.5-3 1-1.8 1.8-4.5.7-3.3-1.4.8-1.5.8-2.4.1-2.8-1.3-.8-.2-2.6 2.2-3.4 2.3-1 1.2-2.7-1.3-2-1.6.4-2-.2-2.6-3.1-1.1-6-3.5-2.3-4.9-4.5-1.5-2.4 7.3-1.6 12.5-3.2 7.3-2.3 18.6-1.6 12.5.7-1.7.7-.3 2.5 2.8 3.7 3 1.1 1 2.4-5.8 3.7-3.6.7-6.6 1.6-6.6 2.2 0 .5-1 .6-2 .2-1.6-.4-2-.3-1.7.7.8 2.7 23.9-.3 28.5-.4 4.7-.1-6.8-6.8-6.8-9.2 0-1.7-6-5-6-7 0-2.5-3-.2-3-3.9 0-3.5-4-4.5-4-8.8 0-4.2-3-3-3-6 0-3.7-6-3.8-4 1.7.8 2.1.5 2.2-7.3 3.3-24 3.4-23.2 6.7-19.9 5.8A95.4 95.4 0 01200 105c-1.1 1-4.5 3.6-4.5 5.2 0 3.5-16 2.7-16 4.3 0 1.4 9 1.2 14.2-.4 5.2-1.5 10.8-1 10.8 1 0 1.8 1 1-10 3.3-13.2 2.7-9.7.6-13.5 2.5-1.5.8-4 1.2-5.4 1-3-.7-10.5 2.8-11.4 5.1-.9 2.3-3.4.4-6.2 3.6-1.9 2-1.9 2 1 1.3 1.7-.4 3.2-1.1 3.4-1.6 1-2.7 4 4.2.5 4.2-2.3 0-.4 2.2-.4 4.2 0 1.4 3.1-1.2 3-2.6-.4-3 .2-4.6 1.6-4.6.9 0 1.3-.5.9-1-1-1.8-3.7.8-2.8-1.6 1-2.6 6.3.6 6.3-1.3 0-.6-.6-1.1-1.5-1.1-2 0-1.9-1.6.1-2.4 2.8-1 3-.8 3 5.9.1 6.3 0 6.5-2.5 6.5-11 0 1.8 6.9-.8 7-.6 0-1 .5-.7 1.2.8 2.2-1.4 4.6-2.5 2.8-1.8-2.8-4.1 1.7-6 .5-.5-.3-4 1-7.7 3-3.7 1.9-8.8 3.7-11.3 4-6.9 1-4.7 2.2-10.2 2.8-5.4.6-8.5 4.7-11.8 4.7-3 0-13.6 5-16.2 5-2.3 0-3.7 2-1 2 3 0 2.5 2 .8 2-1.5 0-3.1 2.9-2.2 3.8 1 1 6.4-2 6.8-3.8.8-2.8 9.4-3.4 12.7-5 10.3-5.3 30.7-9.9 38.2-12.6 3.3-1.2 16.1-3 16.1-3 .5-.4 1.5 0 2.3.7 1.3 1 2 .8 4.2-.8 6.6-4.8 21.7-6.6 28.7-8 3-.6 5.6 1-10.7 5.9-4.2 1.2-4.4 1.6-2.4 4.3 1.2 1.6 1.9 1.7 5.5.7 12-3-5.8 5.8-8.2 5.8-1.8 0-1.3 4.8.6 6.1 1.8 1.2-3.4 3.1-6.5 2.5-4.7-1-9.4 3.4-15 3.4-3 0-3.1.1-1 1.3 2.3 1.3 1 4.8-1.9 4.6-1 0-1-.2-.1-.6 7.7-3.1-3.3-3.8-12-.7-6.3 2.2-6 .5-11.8 3.4-6.1 3.1-5.2.6-13.1 4.8-8.4 4.6-14.1 5.6-18 9.4-5.6 5.4-7.7-1.1-4.2.2 1.2.5 1.4.1 1-1.8-.5-2 0-2.7 3.1-4.1 5.2-2.4 9-7.2 5.8-7.2-.8 0-1.4.5-1.2 1.1.2 1.6-6.7.6-8.5 2.4-2 2-6.8 1-3.6 1.9 2.1.5 2.3 2.3.2 2.3-.8 0-1.5.7-1.5 1.5 0 2.2-3 1-3 2.5 0 1.6-5-.9-5 .9 0 1.7-3.6 1.3-5.4-.6-2.8-2.7-6.6 1.9 2.4 3.7 4.4.9 1.5 5 5.3 5 2 0 2 0 .2-1.5-2.8-2 .5-.7.5-3 0-2 3.2-2.1 2.4 0-.8 2 1.6 2 1.6 0s2-1.7 2-.5c0 1.4 3 .5 3 2 0 1.9-4.1-.8-5.8 1.3-1.1 1.4 22.3 1.4 25.8 0 2.2-.8 7.4-.8 9.5 0 1 .4 2.3.3 3-.2 1.3-1 17.5-1.4 17.5-.3 0 .4-.7 1.8-1.6 3-1.6 2.4 0 5 3.4 5.2 2.5 0 1.3 3.8-1.5 4.8l-2.8 1c3.8.1 7 0 6 2.6-1.1 2.8-15.5-1.5-15.5 2.6 0 1.6.5 2 1.8 1.6 4.4-1.4 28 .5 32.2-1.7 2.7-1.4 13-1.4 13-3.3 0-3.6-31.2 4.2-26.3-.7.8-.8 24.3-2.2 24.3-3 0-1.6-5.8-1.8-15-.5-9.9 1.4-11 1.3-11-1 0-5 25.9-2.3 29.8-4.8 1.2-.7 11-2 11.2-2.2 1.2-1.1-1.2-1.2-7.5-.3-10.4 1.5-31 1.6-32.6.2-6-6 22.1-4.3 22.1-7.9 0-1.7-1.7-2.7-3.2-1.8-.6.4-2 .9-3.2 1l-14.6 1.4c0-2-.3-6 1.5-6.7 2.7-1 1.7-2-3-3-7.4-1.7-2.5.1-5.7 7-1.8 3.8-1.1 2.1-25.3 4.1-20.3 1.7 9-5 17-6s8.7-1.3 7.4-3.3c-1.9-3 2.1-6.3 5.9-5 3.1 1.3 10.2.4 10.2-1.2 0-.5 1.3-1 2.8-1 6.2 0 6.5-6.5 3.3-5.4-8.4 2.6 7.6-11.3 2.8-3.7-3.8 6.1 5.3.2 8.2.2 2.6 0 4.7-3 2.9-4-1.1-.8-1-1 .5-.8 3.3.4 10.5-2.4 10.5-4 0-3.2 4.6-7.2 5.9-5.1 4 6.5-3.2 4-4.4 5.9-.6 1 .6 1.3 4 1 1.6 0 2.5.9 3.4 3.6 1.6 4.4.7 5.3-5.2 5.4-2.6 0-3.7.4-3.4 1.2.3 1 2.7 1.2 8.5 1 7.8-.4 8.2-.3 9.8 2.2 3.3 5 .8 3-20.6 5.7-10.6 1.3-13.7 1.3-14.5 2-1.4 1.5-9.6-3-6.6 1.6.8 1.3 23.1 1.4 23.1.2 0-1 21.5-2.9 21.9-1.9.4 1.3 3.9 1.2 4.3 0 .2-.7 3.2-1.3 6.7-1.6 9.6-.6 7.4-2.3 14.4-1.8 5.1.4 6.5-1 2-2-5.7-1.2-13.1-.4-12.6 1.3 1 3-1.2-2.5-4.7-1.4-3.1 1-2.5-1.4-7.5-4l-3-1.6c22.4.5 7.7-1 32-2.5 5.5-.4 10.6-1.1 11.3-1.7 2.3-1.8 3.4 2.4 4.8.2 3.4-5.6-26-.1-32 0zm-71-25c-1.2 2.8-4.5 5.1-4.5 3.1 0-.5.5-1 1-1 2.1 0 3.2-3.9 1.5-5.6-1.6-1.6-1.6-3.5.1-4 2-.6 3.2 4.3 2 7.4zm3.5-11.8c-4 2.1-4.8-7.2-2.5-7 2.5 0-.2 5 3.5 5 1.1 0 2 .5 2 1.1 0 1.7-.4-.5-3 1zm-62.5 66c-4 0-4-.3-1.7-3 2-2.4 4.4-2.7 3.6-.5-.3.8 0 1.5.5 1.5.6 0 1.1.4 1.1 1 0 .5-1.5 1-3.5 1zm90.5-41.7c-3.5 1.8-3.7 1.5-.8-1.8 2.5-2.8 3.8-3.2 3.8-1 0 .7-1.3 2-3 2.8zm14.9 10.7c-.6-6.3 2.2-1.6 2-.1-.2.9 0 2.1.5 2.8.9 1.5-2 3-2.5-2.7z"/>
  <path d="M146.3 218c-.5-1.3-4.2-2-6.4-1.2-.8.3-1.3 1-1 1.4.8 1.3 7.8 1.2 7.4-.2z"/>
  <path d="M121.5 217.3c0 .3 3.6.7 8 .8 11.4.2 8.3-1.7 4.8-1.8-7-.3-8.7-.5-9.4-1.2-.7-.7-3.4 1-3.4 2.2zM108.5 214.4c0 1.7 1.8-.4 4.6 1.6 4.4 3.3 9.3-1.6 3.8-1.5-4.9 0-8.4-2-8.4-.1zM197.9 215c-.2.5.8.9 2.4.8 4-.2 7.2-.2 7.2-1.5 0-1.4-9.2-.8-9.6.6zM109 205.8c-13.2.8-15.5 1.2-15.5 2.7 0 .6.6.7 1.3.2 1.3-.8 3.4-.9 18-1.2 11.2-.2 13.6-2.6-3.9-1.7zM142.7 207.6c14.4-.4 13.8-.3 13.8-2 0-1.6.2 0-10.8 0-9-.2-15.4.5-14.7 1.6.2.4 5.5.6 11.7.4zM224 199.9l-5.7.4c-4 .1-5.5 3.4 8.2 1.2 5-.8 3-2.1-2.5-1.6zM225.3 191.6c.5-1.4-1.2-1.3-17.8.6-12.7 1.5-16.5-.4-14.6 1.8 2 2.5 31.5.2 32.4-2.4zM62.5 187.4c2.9 0 2.5 3 8.2 3 5.8 0 7.3 2.4 9.1 1.3 2.4-1.5-5.4-1.3-2-2.8 2.3-1 5.3 1.3 3.8 2.8-.6.6-1 1.5-1 2 0 1.2 3.7-.3 5.7-.3.6 0 2-1.4 2.8-3.1 1.5-3 1.7-3 3.5-1.4 3 2.7 1.2-1 3.3 1.7 1.6 2 1.5 1.7 6.1-2.2h-2.7c-4 0-1.7-2-4.6-2-3.1 0-3.3-1.3-.4-2.6 2.4-1.1 2.5-1.3.6-1.3-3.9-.2-4.3 4.8-9.8 2.9-1.8-.6 4-6.4 15-9.2l-4.6-1.4c-7.5-2.3-5.1 1-11.7 3-3.4 1-1.8 5.6-4.3 6.4-1.2.4-1.3.3 0-1.2 1.7-2 .8-3.2-1-1.3-2.1 2-6.7 3-7.6 1.5-.4-.7-.2-1.4.5-1.6 1.5-.5 13.8-11.2 15.9-11.2 2.2 0 5.8-4 8-4 .8 0 4.4-1.6 8-3.4 9.5-4.8 11.4-5.8 36.2-13.6 16-5 11.3-6.6 17.6-6.3 5 .3 9.4-2.6 5.9-2.7-3.4 0-4.5 3.5-4.5.8 0-4-13.4 3.6-24.5 6.8a76 76 0 00-7 2.4 190 190 0 01-18.5 7.4s-12.6 6.5-14.4 3.6c-.8-1.3-10.6 3.7-10.6 5.5 0 .6-2.3 2.2-5.1 3.6-6.5 3-16.5 11.5-19.8 9.4-1.6-1-1.3-2.5.5-2.5.8 0 2-1 2.4-2.3.5-1.2 1-1.6 1-1 0 .8 2.4-.4 5.4-2.7 3-2.3 6.5-4.3 7.8-4.5 1.3-.3 2.5-1 2.7-1.5.2-.6 1-1 1.8-1s2.2-.7 3-1.5c2.2-2.3 4.5-.6 7.5-3.5l2-1.9c-3.2.7-5.2 1.4-.7-1.5 6-3.9 5-1.2 12.7-5.1 7.3-3.7 7.3-1.8 10.4-3.9 3-2 15.4-5.6 15.4-6.9 0-2.1-10.2 3.3-16 4.8-8.2 2.3-42.1 16.6-48.4 22-3.3 2.8-13 7.5-8.5 7.5 1.4 0 .2 2-1.2 2-1.9 0 2.5-4.3-3.3-.4-2.9 1.8-5.3 1-3.5-1.2.7-.8 1.7-1.4 2.3-1.4 2.5 0 5.6-8 .8-3.7-3.2 3-3.5-1.8-5 .2-1 1.4-5.3 3.7-5.8 3.2-1-1 10.8-12.5 14.7-14.2 4.7-2.2 7.2-.6 4.3 2.6-2.4 2.7.2 3.3 3.7.9 4.4-3.2 2.2-4 4.7-4 2.2 0 5.2-2.3 5.2-4 0-.6.8-1.4 1.8-1.7 2.1-.8 6.8-5 8.6-6.6l-3.2.7c-3.4.8-4.8-1.6-1.7-2.8 2-.8 2-2.6-.1-2.6-1.5 0-1.5-.2.2-2 2.1-2.5-2.9-8.5-7-8.5-3.8 0 .2-5.2-2.9-2.7-.8.7-3.2 1.2-5.4 1-4-.2-11.3 4.2-11.3 6.9 0 1.8-5.2 3-5.5 5.6-.5 3.3-1.4 4.7-3 4.7-3.4 0-.3 4.6 3.6 2.2 1.9-1.2 3-.7 3 1.5 0 2.8 6.7 8.3 2.4 8.3-.8 0-1.5-.5-1.5-1 0-2.8-6 .6-7.2 4.2-1 2.5-4.8 1.3-4.8 2.8 0 1.5-3 .2-5 2.5-2 2.4-3-.7-1.6-2.4 2-2.5-1.4-1.2-1.4-3.3 0-.7.6-.6 1.4 0 1.5 1.3 2.8.4 5.9-3.6 2-2.7 8.6-5.2 3.8-6.7-5.8-1.9-16.4 17.3-25.5 8.2-2-2-2-1.9 1.4-2.2a5 5 0 014.2 1.9l1.7 2c.8-1.8 1.4-4.3 5.6-8.3 8.7-8.3-1.3-5.7-3-3.5-1.7 2.1-1.9.5-4.5 3-1 1-2 1.1-2.4.5-.8-1.3 15.6-18.4 21.3-22.2 2.5-1.6 5-3.8 5.8-4.9 2.2-3 3.4-1.1 5.4-3.6.7-.9 3-2.3 5-3 3.3-1.4 6.2-4.4 4.2-4.4-4.6 0-30.7 18.5-29.7 20 .4.7 0 1-.7.8-2.9-.5-12.5 6.4-11.4 8.2 1.3 2 4.2-2.5-.6 5l-6-4.4 2.6-1.4c3-1.5 3.3-4.2.5-5-2.5-.6-2.5-1.4 0-3.7 1.1-1 1.8-2.1 1.6-2.5-1-1.6 20.8-20 23.7-20 1.2 0 6.7-4.3 6.7-5.2 0-1.2-5.2.2-6.5 1.7-.5.7-4.9 3.7-9.6 6.9-12.6 8.3-27.9 25-24.5 16 1.2-3 3.6 2.2 3.6-.4 0-2.8 23.4-22.7 24.4-23.6 5.8-5.5 29.6-19.6 42.6-24.5 4-1.4 5.7-2.6 4.9-3.4-1.2-1.2-12.6 4-16.7 5.6-4.7 1.7-2.7 1.9-12.2 6.8-8.7 4.6-4.3 2.7-13.2 8.5-3.1 2-6.8 5-8 6.5-2.7 3.2-7.6 6.3-6.2 4 1.1-2 4-4.8 3.2-5.5-.6-.6-7.8 5.7-7.8 6.9 0 1.4-5.4 7.7-6.6 7.7-.6 0-2.6 1.3-4.5 3-5 4.4-4.7 1.7.5-3.8 7.5-8 10-11.3 9-12.2-1.4-1.5-7.6 3-6.3 4.5 1.5 1.9-1 2.8-1 1.5 0-2.8-9.6 2.2 1.5-7.6 8.2-7.2 11.4-11.4 13-11.4.8 0 1.7-.7 2.1-1.4 1-2 7.9-6.8 12.5-8.9 9.6-4.5 3.8-5.8 3.8-3.8 0 .4-1.2 1-2.8 1.4C39 81.9 24.6 94.4 22 94.4c-.7 0-1.6.6-2 1.3-2 3.2-9.7 5.2-2.1-.3 4.7-3.5 4.3-5 6.2-5 3.3 0 4.9-6.2 1.1-3-1.6 1.3-6.8 1.1-2-1 1.6-.9 3.5-2.3 4.3-3.3.7-1 1.7-1.7 2.3-1.7 1.3 0 9.5-7 10-6.5.6.6 6-4.9 7.3-5.1 3-.6 7-3.4 4.8-3.4-5.2 0-16.5 8-20.6 11.2-7.2 5.6-6.3 2.4-10.8 6.2-1.8 1.5-3.6 2.3-4.5 1.9-1.5-.6-1.4-.7.2-1.4 3-1.2 11.2-11.2 15.5-13.1 1.6-.7 3-1.6 3-2 0-1.5 8.6-6.8 11.1-6.8 6 0 .5-6.4 4.5-2.8 2.8 2.5 10.2-1 11-5.2 1-5.2 5.8-2.4 8.4-5.6 1.8-2.1 3.5-.8 4.5-2.5.8-1.3-3.7-.2-4.6 1.1-2 2.9-8.5 2-8.4-1.2.1-3.8 1.6-4.6 20.1-10.4 24.9-8-2.7-2-3.7-2-1.7.2-9.4 4.5-10.3 2.2-.3-.6-.5-.5-.6.4 0 2.2-9 5.3-9 3.2 0-1.1 10.6-6 13-7.8 2.5-2 14.4-3.2 21.6-6.6 3.2-1.6 3.3.3 7.7-1 4.3-1.2 14-.6 16.4-2.4 2.2-1.6-.8-1-16.6-.3-4 .2-7.5.7-7.8 1.1-.3.4-1.5.5-2.8.2-3-.7-12.8 2-15 4-1.3 1.5-4.6 1.2-4.6-.4 0-5.3 40.2-11.3 67-10h8.8c10-.2 14.1 3 18.2 3 1.4 0 2.6 1-4.5 4.2l2.3.9c3.3 1.2 3.5 5.3 5 6.3.6.3.8 1.4.6 2.5-.7 2.4 2.8 4.5 6.3 3.8 4-.7 1.5 2.8 3 2.1 8.8-4 9.7-5.5 13.7-4 5 1.8 18.8 2.9 20 4.8 1 1.9 3.1 1.7 4.8-.3 1.2-1.4 1-1.5-1-.9-3.2 1-4.2-3.3 5.3.1 2.2.8 5 1.5 6 1.5 4.7 0-1.2 2-6.1 2-7.9 0-7.2 1.4 1.8 3.6 10.7 2.6 7.3 3.9 6.3 3.5-3-1.3-37.5 2.3-8.2 3.3 3.5 0 5.7 2.6 2.2 2.6-7 0 8 4.8 9.5.6 1.2-3.1 1.5.9 3.1-.2 1.3-.8 2.8 1 4.4 1.2.6 0 2.2.5 3.5.8 3 .8 7.2-1.7 5.5-3.2-1.5-1.5-8.5-2.5-8.5-1.3 0 1.7-3.8-1-4.3-3.1-.5-2 5.4-1.7 8 .4 1.6 1.2 3.3.2 3.3-2s-3-4.1-6.7-4.2c-2.5 0-3.3-.5-3.3-1.9 0-2.7-7-8.6-11-9a39 39 0 01-8.2-2.2c-8.3-3.3-9.6-.5-12.3-4.6-1.4-2.2-1.5-2.5-.2-2 1.8.6 7.7-1.3 7.7-2.5 0-1.4-7.2-.9-9 .6-1.5 1.5-6 1.1-6-.4 0-1.1-12-4.9-12-6.1 0-.5-1.7-1-3.8-1-2 0-4.3-.5-5-1.2-2.4-2.2-1.2 1.3-3.3 1.3-.6 0-.8-.6-.5-1.4.5-1.4-8.7-3.5-22.6-5.2-4-.4-7-2.4-3.8-2.4.6 0 1-1.4 1-3 0-2.5-.4-3-2.3-3-3.4 0-5.1 2.3-3.6 5C142 8.3 143 8.1 125 8.8A101 101 0 0099 12.3c-3.4.1-2.8 2.3-4.7 1.5-.7-.3-3 .2-5 1-6.1 2.6-11.2 1-13 3.7-1.5 2.5-1.5-.4-7.8 3.3-6.3 3.7-10 4.9-13 6.6a8 8 0 01-3.3 1c-1.7 0-2.1 2.5-.6 3.5 1.4.8 1.1 3.6.4 1.7-.9-2-4.9-1.4-7.4 1.3-1.2 1.4-2.9 2.5-3.6 2.5-2 0-.4 1.6-3.2 2.4-3 1-8 10.5-9.2 8.6-1-1.8-2.6 1-.8 2 1 .7.9 1.4-1 3.2-2 1.8-2.3 1.9-1.8.5.8-2.3-1.4-2.4-1.4.3 0 3-3.1 2.6-2.7 4.5.2 1.2-5 6.5-6.4 6.5-1 0-1.8 4-.8 4.1 5.7.8 3.1 2.1 1.2 2.5-2.7.5-3.2 1.2-3.8 4.5-.3 2.1-1 3.6-1.5 3.3-.5-.3-1 0-1 .6 0 .7-.9 2.5-2 4.1-4.3 6 2.5 1.6-2.5 10.7-2 3.8-2.4 5.4-1.7 6.8.7 1.2.6 2.1-.3 3.1-2.9 2.9 3.9 6.3.1 6.3-3.2 0 1 4.9-1 12.3-1.3 5.6 4.4 0 3 5.2-1 4.3 2.4 1 2.4 4 0 .8-.3 1.5-.8 1.5-1.2 0 .8 10.3 2.2 11.2 1.4.9 4.3.8 5.8.8-4.5 7.8-5 8-2.7 8 2.1 0 .7-1.1 3.4-3.9 1.9-1.8 1.9-1.8 1.9.5 0 1.3-.4 2.4-.9 2.4-4.8 0 7.2 13 12 8.6 2.3-2 3.1-2 3.1 0 0 2.7-4 1.3-3.2 4.4.7 3 3.2-.3 3.2 2.4 0 2.3 1.9.6 4.5 3.6 2.9 3 2.6-.4 5.1 3.5 3 4.4 6-.1 4.8 3-1.2 3 3.5.2 8.6 3.8 1.4 1 3.3 1.7 4.2 1.7 2.6 0 2 2 4.8 2zM188.3 29.8c.5-2.3.6-2.4 2.3-.9 1 1 2.2 1.4 2.7 1.1 2.1-1.3 15.7 3.8 14.7 5.4-1.4 2.3-2.9-.8-9.1-1-1.8 0-3.5-.5-3.9-1a2 2 0 00-1.8-1c-4.2.6-5.4 0-4.9-2.6zm-21.8-14.4c0 1-6.2 1.4-7.2.4-1-1-24.4-3-33-2.8-4.8.1-8.8-.1-8.8-.6 0-3.6 49-.8 49 3zM30.2 63.2c5.4-3 6.4-1.6 1.3 2-6.7 4.6-8.9 8.2-11.4 8.2-2.4 0 5-7.5 10-10.2zm7.4 106.7c-1.5-1.8.4-2.9 4-2.3 2.2.3 2.2.4.6 2-2.2 2.2-3 2.2-4.6.3zM226.5 191.5c0 .6 4.5.9 11.8.7 32.6-.9-11.8-5.1-11.8-.7zM147 171c-24.3 5.7-27 15.3-23 13.7 2.4-.9.8-2.8 3.2-2 2.2 1 2.7-1 13.3-4.2.6-.2 25-7.9 25.4-7.4.3.2 2.2-.5 4.3-1.6 3.3-1.8 6.7-2.9 14-4.5 2.2-.4 1.8-2 5 0 3.4 2.3 4 .4 2.5-.5-.7-.4-1-1.5-.6-2.4 2-5.3-31.8 6-44 8.8zm-18.4 10.2c-3.3.5-1.9-2.2.9-2.7 3.3-.4 1.9 2.3-.9 2.7z"/>
  <path d="M102.6 180.4c-.8-1.2-5 .2-5 1.6 0 1 1.2-1.4 3.1.8 1.8 2 1.8 2 9.2-1.8 9.1-4.8 15.1-5.4 11.9-5.5-3-.2-2.8-2.4-.4-1.7a3 3 0 003.1-.9c1.9-2.2-1.5-3.2-3.8-1.1-1 .9-2.6 1.4-3.4 1-1.5-.5-3.2 1-3.2 3 0 1.8-8-.3-9 2.1-.2.8 0 1.5.7 1.5 1.4 0-2.1 2.8-3.2 1zM206.5 175.2c0-1.2-2 0-7.5.2-7 .3-12.5 1.2-12.5 2.1 0 1.2 20 .5 20-2.3z"/>
  <path d="M125.6 173.4c-.6 0-.9.4-.6 1 1.1 1.7 2.8-1.5 17-5.5 10-2.8 2.4-1.6 19.5-6.4 14.5-4.1 14.2-4.5 16.4-4.2 1 .1 2.4-.3 3.2-1 .7-.6 3.5-1.2 6.2-1.2 6.3-.2 1.2-.1 1.2-2.3 0-3.7-29.8 6-38.5 7.6-8 1.5-9.8 1.6-14.6 4-7.7 3.7-9.8 1.8-9 5.5.2 1.5 0 2.5-.8 2.5zM59.1 163.8c-.8-.3-2.7.3-4 1.4-2.3 1.8-2.4 2-.8 2.4 3.3.8 7.8-2.7 4.8-3.8zM245.2 162.8c7.6-.3 12.5 0 12.8.6.8 1.2 2 1.3 3 .2 1.6-1.6 8-1.9 6.7-4-.6-1-1.5-1-3.7-.2a77 77 0 01-22.6.4c-2.1-1.3-2.7 3.4-5.5 0-1.5-1.9-1.5-1.8-1 .3.7 3.3-4.7 3.2 10.3 2.7zM279.9 158.3c-.7-.6-2.1-.8-3-.4-1.7.6-1.7.8.1 1.5 3 1.2 5.5 1.1 5.5-.2 0-1.7-.7.7-2.6-1zM268.8 151a197 197 0 01-33.5-.1c-13.8-1.8.5 5.1 14.2 3 2-.2 8.5-.5 14.5-.6 20.1-.2 25-3.5 4.8-2.4zM235.5 142.2c0 .5 1.5.6 3.2.4 4.7-.7 1.8 1.8.3 1.8-.8 0-1.5.5-1.5 1 0 1.3 4.4.2 4.9-1.2s17.9-1 18.5.4c.4 1 .7 1 1.4 0 .9-1.3 5.2-1.9 8.1-1 .8.1 1.6-.3 1.9-1 .6-1.8-2.8-.7-2.8-2.3 0-.7-.6-.8-1.7-.4-1 .4-7.8.9-15.3 1-17.6.4-17 .4-17 1.3zM63.8 121.5A146 146 0 0043.1 137c-3.2 3-6.5 5.5-7.2 5.5-.8 0-1.4.7-1.4 1.5 0 7 16.3-13.5 27-19 2.5-1.3 4.7-4.4 2.3-3.4zM146.5 135.7c24-7.2-5.7-2.2-7.6.8-.7 1.3-4.4.4-4.4 2 0 1.4 1.4.3 12-2.8zM21.5 134.4c-3.3 0-4.4 7.1 2.5 1.6 1.7-1.4 2.7-2.8 2.3-3.2-.8-.8-2.8 1.6-4.8 1.6zM105.5 128.3c0 1.2.6 2 1.3 2 2-.3 7.7 1.3 7.7 2.2 0 1 6 .1 8.2 0 .4 0 1-1 1.3-2.1.4-1.3 1.6-2 3-2 5.8 0 1.7-12 5-12 2.5 0-.3-10.6-3.3-12.4-3.5-2.2-12.5-3-17.7-1.7-10 2.5-9.9 1.1-9 6.1.3 2.4.2 4-.4 4-.6 0-1 .5-1 1 0 2.7 4.5.3 6.3-3.3 2-4.1 4.1-5.2 2.7-1.3-.6 1.6-.6 2.7 0 3.1 1.9 1.2 1 3.5-1.3 3.2-1.4-.1-2.2.3-2 1 .3 1.6-3 1.7-4.5.1-.7-.7-1.5-.9-2-.5-1 1.1 2.4 6.1 4.4 6.5 4.5.7-4.5-3 .2-2.6 2.1.2 3.6 2.3 2.6 3.8-.3.5 0 1.1.5 1.5.6.3 1 1.3 1 2.2 0 3.4-3-3.1-3 1.2zm11.3-10.8c-.7 2.7 1.2 2.3 2.5-.5.8-1.7.8-2.7 0-3.5-1.7-1.6-1.9-6.1-.2-6.1 2.8 0 1.3 12.9 5.9 9 1.4-1.2 1.8-.9 3 2.5.5 1.6.4 1.7-.6.7-2.5-2.5-4.2-1.5-3.5 2.3.8 5.4-1.9 3.2-1.9.4 0-4.2-2.8-2.9-3.1 1.4-.7 10.8-2-2-3.6-4-1.2-1.5-1.7-7.3-.6-7.3 1.3 0 2.6 3.2 2.1 5.1zm-5.3-8.1c2.2 0-2.5-4.3 2.5-2.4 1.6.6 2.2 3.4.6 3.4-.5 0-1.6.3-2.5.6-2.1.8-1.8-1.6-.6-1.6zM226.8 116.7c3 .3 3 .4 1 1.1-5.2 1.8.7 4.5.7 2 0-3.5 5.3-.7 5.8 3.1.3 2.1 0 2.6-1.2 2.1-1.7-.6-2.1.9-.5 2 .6.3.8 1.2.5 2-.7 1.9 1.4 1.7 1.4.4 0-1.3 2.5-1.5 1.7.4-.3.8-.3 1.6 0 2 2.1 2 7.2-6.7 5.2-9.1-2.2-2.6 1.5-1.3.5-5.1-.7-2.6-.5-2.5-3.9-1.2-3.2 1.2-5 .4-3.4-1.6 1.4-1.6 10-2 10-.4 0 .5.4 1 1 1 2 0 .8-9.8-2.6-7-1 .8-1.8.5-3.3-1-2.2-2.5-10.2-2.6-11-.2-1 3 8.8-1.8 4.4 1.7-4.2 3.3-14.6-1-5 4.4l-2.3.7c-3.2.9-2.8 2.2 1 2.7zM33.5 127.3c0-.5.7-1 1.5-1a3 3 0 002.2-1.2c.9-1.3 6.1-5 6.6-4.5.2.2 1.4-.7 2.7-2 1.3-1.2 3-2.2 3.7-2.2 2 0 2.7-4 4.8-4 3.5 0 3.2-5-4.6.3-1.9 1.3-4 2.1-4.6 2-.7-.3-1.3 0-1.3.4 0 2.7-20.6 11.9-18.5 15.3 1 1.4 7.5-1.3 7.5-3z"/>
  <path d="M228.7 129.2c2-.7 1.6-5.2-.4-5.6-2.4-.5-2 1.8-.7 1.8.6 0 .8.8.4 2.1-.5 1.5-.3 2 .7 1.7zM149.9 122c-1.1-.6-11.2 2.9-12.8 4.5-2.2 2 14-3.6 12.8-4.4zM205.6 124.5c-1.2-2.3-2-1.7-8 0-.3.1 1.2.5 3.4.9 5.1.9 6 1.5 4.6-1zM156.5 120.5c0 1.5 2.9.4 11.5-1.6 13.6-3 12.9-8-3.2-1-4.8 2.1-8.3 1-8.3 2.6zM173.8 112.5c1.2-.5 6.4-1.2 11.5-1.6 28.2-2.2-17.4-3.6-14.3 1.4.4.6 1.5.7 2.8.2zM285 99.1a22.9 22.9 0 00-4.1-5c-2-1.1-.4-2.9.7-2.2 1.6 1 2.3-2.6.8-3.9-1.6-1.4-15.8 0-15.8 1.5 0 .8 4.5 1.4 7.6 1 1.5-.2 2.7 1.6 1.6 2.3-.5.2-4.6.8-9.3 1.1-22.6 1.8 3.2 4 5.5 3.7 1.3-.2 1.7 0 1 .7a40 40 0 01-15.5 2.1 6 6 0 00-2.2-1.3c-2-.7-2.4-4.7-.6-6.5.9-.8.9-1.5 0-2.5a36 36 0 01-1.7-10.8c-.5-9.5-1.4-11.4-4.6-10.4-3.6 1.2-12.8.8-14.4-.5-3.1-2.7 2-5.1 7.2-3.5 2.5.7 4.6 1 5 .4.7-1.3 5.6-.5 6.7-1.6 1.2-1.2 8.6-1.4 8.6-.2 0 .6-.9.8-2.2.4-3.4-1 .3.6.6 2.1.2 1.4 4.8 0 6 2 1.1 2 5.6.9 5.6 2.4 0 1-2.6 1.4-7.1 1-4.2-.2-4.3 1.8-.1 2.5 2 .3 5 1.2 6.4 2 1.4.8 2.9 1.1 3.2.8 1-1 2.9 3.7-8.5 3.7-7.5 0 1.7 4 4 2.6.5-.3 1.7 0 2.7.9a10 10 0 005 1.5h3.2c0-9.8-.7-12 6.5-22.1 5-7.2-1.1-9.7 0-6.6 1 2.5-1 .5-1.8 4-.7 2.6-7.7 7.6-8.2 5.8-.3-.6-1-1.1-1.7-1.1s-1.7-1-2.3-2.4c-.9-1.8-1.8-2.3-4.4-2-5.6.3-8.3-4.8-18.6-2.1-4.9 1.3-22.4 1.2-31.3-.1-6.3-1-15-1-15.6-.2-1.1 1.8 16.1 1.7 16.1 2.7 0 .4 8.5 1 8.8 1 2.5.1 2.1 2.8-.6 4.6-3.5 2.3-14.8 1.7-15.4-.7-.6-2.2-1.8-2.3-2.6-.3-.3.8-1.3 1.5-2.2 1.5-2.9 0-.9 2.5 2.1 2.6 6.1.3 14.6 1.4 15.5 2 2.8 1.6 25 0 26.2 4.4.6 2.2-.7 3.6-1.8 2-.4-.8-1-.8-2 0-1.3 1.1-11.5 2.6-11.5 1.7 0-.3.8-1.3 1.7-2.2 5.3-5.3-8.7-.8-17.2-2.6-10-2.2-24.2 1-2.8 2.2 15 1 16.8 1.4 17 4.4 0 1.4-.3 2.5-.8 2.5-1.7 0-1.1 3.6 4.6 1.4.8-.4 1.5-1.2 1.5-2 0-2 10-.8 11.7 1.4 2.6 3.6-17.4 6-22.5 2.8-.8-.5-1.7-.4-2.3.1-1.3 1.3 1.6 4.3 4.2 4.3 1 0 2 .4 2.4.9.6 1 10 .6 12.8-.5 1.3-.4 1.8-.1 1.8 1.2 0 1 .3 1.3.6.6.7-1.7 3-1.5 3.7.4 1.9 4.8-3.6 1.4-4.8 3.3-1 1.6-4.5 1.3-5.2-.5-.7-1.9-14.3-1-15.6 1-2.2 3.3 1.7 3 .7 1.6-.7-1.2 6.5-1.8 6.5.6s2.2 0 4 1.7c2.1 2.1 1.3-2 5.8-.2 4.3 1.6 24.5 1.3 15.9 3.4-6.9 1.8 1.4 6.3 9.9 2.5 8.3-3.8 10.4-3.8 8.4-5-2.3-1.5 1.5-1.4 3 .5 2.2 2.5 3 0 5.5 5 2.2 4.7 3.5 4.4 3.4-1-.1-5.7-.4-2.8-4.4-8.8zm-23 6.1c6.4-2.9 6.8-2.7 12-2.8-6 3.2-6.5 3-12 2.8zM64 106.4c-2 0-5.5 1.8-5.5 3 0 1.8 10.4-3 5.5-3z"/>
  <path d="M252.7 108.9c3.8-1.2 4-2 .4-2.7-1.3-.2-2.1.3-2.4 1.5-.3 1.6 0 1.7 2 1.2zM56.5 102.3c0-1.6-2.6-1-4.5 1-1 1.3-1.3 2-.5 2 1.8 0 5-1.9 5-3zM28.6 101.1c0 1.8.7 1.6 4-.8 4.5-3.1 1.8.2 5.1-2.9 1.2-1.1 2.8-2 3.5-2 2 0 .5-2 3.2-2 1 0 2.4-.7 3-1.4 2.2-2.6 30.2-16.6 32.2-16.6.7 0 11.9-5 16.6-5 1.2 0 2.3-.4 2.5-1 .6-1.6 21-4 23.7-4.1l4.6-.1a40.1 40.1 0 00-25.5.8c-4.5 2.5-19 4-33 11-7 3.5-6.2 1.6-9 4.4-3 3-3.5 1-7.7 3.7-1.4 1-3.2 1.8-3.8 1.8A88.3 88.3 0 0028.6 101zM194.3 96.8c-.9-.9-7.8.7-7.8 1.7 0 1.2 9.4 0 7.8-1.7zM173.9 94.6c-.8 1.2 1.5.1 8.6-.7 24.4-2.6-6.4-3-8.6.7zM198.6 90.8c1-1.3 1-1.7 0-2.4-4.2-2.6-4.2 7.4 0 2.4z"/>
  <path d="M201.2 51.7c-1-1-2.6.9-3.2 4.2-1 5.4-2.5 3.2-2.5 7.5 0 6.5-3.8 2.6-13.5 1.4-2.7-.4-4.8-1.5-6.6-3.4-7.6-8.3-32-5-25 3.3 2.4 2.9-2 .6-.1 4.2 3.5 6.8 3.8 7.8 2.2 8.3-2.3.8 7.5 1.8 7.5 4.2 0 6 29.2-7.8 14-11.6a4.3 4.3 0 01-3.1-3.3c-1-4-4.2-4.5-2.6-5.4 1.3-.9 4.4 2.6 4 4.4-.1.8.4 1.3 1.5 1 2.7-.4.8 2.9 3.3 2.9.9 0 1.3-.5 1-1-1-1.5 2.2-1.2 5.3.4 8.7 4.6 10.5-.3 10.7 8 .3 12 3.8 10 2.9 6-1.3-4.8-1.1-9 .3-10.6 2.6-3-1.4-2.3.8-8.7 2.8-8.1 3.6-11.3 3.1-11.8zm-40 20c-1.2-2-1.9-10.6-.8-9.9.6.4 1.1 1.8 1.1 3.1 0 1.4.4 2.5 1 2.5 1.4 0 .7 7.4-1.3 4.2zM225.6 83.6c-2 1.2-2 1.3 1.7 1.8 3.8.5 6-1 4.7-3-1-1.6-3.5-1.2-2.8.5.8 2.1-3 1.8-2.1.4.4-.6-.3-.5-1.5.3zM65 72.4c-3.4 0-14.5 4.8-14.5 6.3 0 2.3 16.7-6.3 14.4-6.3zM102.6 74.4a40.4 40.4 0 00-16.2 2.7c-1.4 1.5 18.7-1.2 16.2-2.7z"/>
  <path d="M143.8 62.7c-7 .8-7.2.9-2.8 1.6 4.6.7 7.5.3 7.5-1.1 0-.5-2-.7-4.7-.5zM71 58.4c4-1.5 3.1-3-1-1.8-1.9.6-3.5 1.5-3.5 2 0 1 1.3 1 4.5-.2zM136.3 30.3c-.8-2.3-7.8-.2-7.8-2 0-.8-1-1-3.2-.4-6 1.4-16.7 1.3-17.9-.2-3.7-4.4-8.5 2.7-10.5 2.7-2.4 0 1.6 1.9-3.2 4.4-2.9 1.5-3.5 4.6-1 4.6.5 0 .7-.5.4-1-.4-.6 0-.7.9-.4 2 .7 2 2.4.1 2.4-2.3 0-2.4 2.3-.1 4.2 1.1 1 1.5 1.7.8 1.7-1.8.1-.6 2.7-2.5 3.4-1.7.7 2 1 2.7-.3 1.3-2 3.5-1 3.5 1.4 0 1.7.8 2.7 2.8 3.4 5.4 1.9 13.7.7 8.6-1.2-.9-.4-1.4-1-1-1.3.3-.3 1.2 0 2 .6 1.8 1.4 6.3.5 7-1.5.3-.8 1.2-1.4 2-1.4 2.1 0 3.8-2.4 2.6-3.7-1.3-1.3 1.8-2.9 4.4-4.6-7-2.7-.3 0-8.4-9.2l8.2-.7c10-.9 10.2.7 9.6-1zm-27.7 15c-1.8 0-4.6-12.5-3-13.4 1.3-.9.5 2.6 1.8 4 .5.6 1.2 2.9 1.5 5.2.4 2.5.3 4.3-.3 4.3zm4-3.2c-1.3-3.5-1.4-6.7-.1-6.7.5 0 1.2 1.5 1.6 3.4.9 4.7 0 6.8-1.4 3.3zM208.7 44.9c4-1 2.5-3.3-2-3.2-3.5 0-19.7-.5-25.7-2.6l2 1.5c8.6 6.2 22.1 1 19.6 5.7-2.4 4.4 2.7 7 1.7 3.1-.6-2.3.7-3.6 4.4-4.5zM144 28c-5.4-.3-6.8 0-6 1.4 1.4 2.3 23.2-.8 6-1.5zM220.4 17c-5-1.2-5.1 2.3-6.4 5.1-1.7 3.5 13.8-3.1 6.4-5zM127.7 20.4c-10.6 0-12 1.8-1.2 1.8 10.6 0 12-1.8 1.2-1.8z"/>
</svg>
