<svg fill="none" xmlns="http://www.w3.org/2000/svg" viewBox="0 0 484 99">
  <path d="M137.993 33.016c-13.992-2.626-15.361-4.291-15.361-18.685 0-18.572-18.093-18.497-32.5.136-7.448 9.632-7.999 9.684-21.031 1.986C36.265-2.943.63 13.809.63 48.64c0 40.5 27.596 56.472 63.928 36.998l16.349-8.763 10.547 11.227c13.915 14.812 33.285 13.469 33.376-2.317.049-8.331 3.689-12.1 15.576-16.116 30.206-10.21 28.853-30.788-2.413-36.653zM70.874 69.752c-26.213 26.214-76.413-3.104-57.207-33.41 6.381-10.068 20.853-4.203 20.853 8.45 0 6.159 1.706 13.839 3.791 17.066 6.207 9.606 17.691-2.938 14.463-15.8-3.225-12.85 6.182-17.88 19.801-10.591 12.555 6.722 11.86 20.723-1.701 34.285zm70.606-9.943c-16.718 15.13-47.854 7.483-45.225-11.107 1.893-13.39 29.061-18.564 33.721-6.42 1.773 4.62 5.809 6.235 11.266 4.503 10.825-3.436 10.948 3.332.238 13.024z" fill="#000"/>
  <path d="M238.975 45.123c-61.008.503-83.547 7.266-31.755 9.529 29.719 1.302 89.254 1.09 98.417-.348 22.647-3.552-20.956-9.556-66.662-9.18zM384.711 44.695c-59.286 0-75.456 7.655-21.463 10.161 47.273 2.197 33.307-1.124 60.241-1.124 8.495 0 15.446-2.033 15.446-4.519 0-2.761-21.087-4.518-54.224-4.518zM460.335 55.552c4.755 4.756 20.596 1.118 22.679-5.208 3.328-10.105-33.595-5.708-22.679 5.208z" fill="#000"/>
</svg>
