<svg fill="none" xmlns="http://www.w3.org/2000/svg" viewBox="0 0 480 100">
  <path d="M419.677 15.603c-7.371 5.585-6.413 6.005 9.037 3.944 23.607-3.147 42.135 11.02 42.135 32.22 0 18.897-11.255 29.929-19.346 18.943-4.534-6.157-8.295-6.674-21.292-2.93-26.742 7.705-28.227 6.771-26.371-16.573 1.805-22.699-20.418-53.277-36.474-50.185-8.877 1.71-15.437 30.639-6.948 30.639 14.897 0 30.083 9.18 25.106 15.176-2.734 3.294-3.69 7.27-2.124 8.835 4.86 4.859-18.524 11.357-31.766 8.825-14.72-2.814-19.697-12.06-11.688-21.708 22.279-26.845-63.91 9.272 10.472 27.574 11.309 2.782 12.557 4.738 10.28 16.122-3.6 18 11.77 17.644 28.874-.665 11.347-12.148 13.46-12.882 19.546-6.796 28.836 28.836 70.767 11.209 70.767-29.749.001-33.333-34.902-52.853-60.208-33.672zM1.042 44.04c-1.17.916.216 3.08 3.08 4.809 8.504 5.133 136.868 6.81 136.868 1.787 0-4.126-134.974-10.488-139.948-6.596zM163.583 49.734c0 6.147 131.04 6.138 131.04 0-.001-6.147-131.04-6.138-131.04 0z" fill="#000"/>
  <path d="M439.548 36.178c-9.039 0-12.657 8.759-6.261 15.155 9.228 9.228 23.722-15.155 6.261-15.155z" fill="#000"/>
</svg>
