<svg width="34" height="43" fill="none" xmlns="http://www.w3.org/2000/svg"><path d="M19.38 16.84c-1.76-.66-2.77.1-3.7.65a7.59 7.59 0 00-3.26 3.73c-.88 1.9-1 8.32-1.17 8.85-1.05 1.46-2.47 2.67-3.05 4.02-.9 2.4.25 5.47 4.2 7.97-.36-.14-.71-.31-1.06-.53C7.18 39 5.96 35.84 6.88 33.4a9.93 9.93 0 011.74-2.42c.44-.51.9-1.04 1.3-1.6.12-.35.2-3.24.5-5.71.16-1.3.37-2.49.67-3.14a7.6 7.6 0 013.28-3.73c1.12-.68 2.4-1.67 5.01.04" fill="#1E1E1E"/><path d="M32.31 31.27a6.5 6.5 0 01-2.7 2.19c-4.22 1.91-4.44-.28-6.85 3.63-2.2 3.59-6.4 6.52-10.37 4.97-3.94-2.5-5.1-5.58-4.2-7.97.59-1.35 2.01-2.56 3.06-4.02.17-.53.3-6.94 1.17-8.85a7.59 7.59 0 013.27-3.73c.92-.55 1.93-1.31 3.7-.65.59.38 1.25.91 2 1.62 2.38 2.23 3.29 2.81 3.92 2.94 1.46 1.07 1.66.6 2.66.72.78.09 1.49-.21 2.42.04.43.33.9.8 1.44 1.43a6.3 6.3 0 01.48 7.68M23.38 10.53c-.6 1.62-.45 3.42-.18 3.97.86 1.8 2.68 3.9 4.35 5.04-1.93-.66-4.58-3.44-5.68-5.73a4.07 4.07 0 01-.23-1.54c0-.74.11-1.6.42-2.43.13-.35.29-.69.49-1a3.9 3.9 0 012.22-1.74 4.49 4.49 0 014.06.74 4.2 4.2 0 00-5.45 2.69" fill="#1E1E1E"/><path d="M32.2 13.08c.52 1.95.1 3.3-.68 4.29-.7.92-1.68 1.55-2.47 2.1-.38.28-.9.28-1.48.07h-.02a14.36 14.36 0 01-4.35-5.04c-.27-.55-.41-2.35.18-3.97a4.2 4.2 0 015.45-2.69c1.57 1.12 2.78 3.1 3.36 5.24M21.16 7.62a5.56 5.56 0 01-.98 4.17c-1.14 1.66-2.8 2.57-2.8 2.57a6.74 6.74 0 01-2.17-.18c-2.48-.7-2.59-3.12-3.9-5.77a6.21 6.21 0 01-.35-4.7A3.93 3.93 0 0114.7.87a5.64 5.64 0 013.5 1.02c1.52 1.1 2.5 3.07 2.95 5.72M10.31 17.66c-.32.39-.74.7-1.26.94a3.93 3.93 0 01-2.71.3c-1.74-.48-2.88-2.32-3.44-4.12-.62-1.99-.56-4.27 0-5.86.17-.5.39-.93.65-1.27.72-.91 2.47-1.72 4.3-.27.46.36.91.86 1.36 1.53 1.9 2.84 2.83 6.71 1.1 8.75M9.22 23.52c.15 1.26.4 4.45-.95 6.04-.36.43-.82.73-1.43.87a6.24 6.24 0 01-3.1 0c-1.3-.38-2.26-1.36-2.85-3.06-.73-2.1-.73-3.75-.34-4.95a3.58 3.58 0 011.78-2.2 6 6 0 012.1-.6c1.07-.1 1.96.2 2.67.67l.24.18a5.07 5.07 0 011.88 3.05" fill="#1E1E1E"/><path d="M32.31 31.27a6.5 6.5 0 01-2.7 2.19c-4.22 1.91-4.44-.28-6.85 3.63-2.2 3.59-6.4 6.52-10.37 4.97-3.94-2.5-5.1-5.58-4.2-7.97.59-1.35 2.01-2.56 3.06-4.02.17-.53.3-6.94 1.17-8.85a7.59 7.59 0 013.27-3.73c.92-.55 1.93-1.31 3.7-.65.88.33 1.97 1.03 3.33 2.31 1.17 1.1 1.99 1.8 2.59 2.25 1.46 1.07 1.66.6 2.66.72.78.09 1.49-.21 2.42.04.43.33.9.8 1.44 1.43a6.3 6.3 0 01.48 7.68M32.2 13.08c.52 1.95.1 3.3-.68 4.29-.7.92-1.68 1.55-2.47 2.1-.38.28-.9.28-1.48.07h-.02a14.36 14.36 0 01-4.35-5.04c-.27-.55-.41-2.35.18-3.97a4.2 4.2 0 015.45-2.69c1.57 1.12 2.78 3.1 3.36 5.24M21.16 7.62a5.56 5.56 0 01-.98 4.17c-1.14 1.66-2.8 2.57-2.8 2.57a6.74 6.74 0 01-2.17-.18c-1.26-1.07-1.55-3.01-2.57-5.08a6.2 6.2 0 01-.36-4.7 3.93 3.93 0 013.75-2.83c.8 0 1.52.1 2.17.33 1.53 1.1 2.51 3.07 2.96 5.72zM10.31 17.66c-.32.39-.74.7-1.26.94a3.93 3.93 0 01-2.71.3 7.08 7.08 0 01-2.12-3.43 9.93 9.93 0 010-5.86c.17-.5.39-.93.65-1.27a2.85 2.85 0 012.98-.96c.46.36.91.86 1.36 1.53 1.9 2.84 2.83 6.71 1.1 8.75M8.27 29.56c-.36.43-.82.73-1.43.87a6.24 6.24 0 01-3.1 0 5.13 5.13 0 01-1.53-2.36c-.73-2.12-.72-3.76-.33-4.96a3.58 3.58 0 011.77-2.19 6 6 0 012.1-.61 4 4 0 011.59.16 5.07 5.07 0 011.88 3.05c.15 1.26.4 4.45-.95 6.04" fill="#3E3E3E"/><path d="M11.92 41.74l.47.32c-.35-.14-.7-.31-1.05-.53l-.05-.03.26.11c.12.05.24.1.37.13M32.31 31.27a6.5 6.5 0 01-2.7 2.19c-4.22 1.91-4.44-.28-6.85 3.63-2.2 3.59-6.4 6.52-10.37 4.97l-.47-.32c3.86 1.24 7.86-1.62 10-5.1 2.4-3.9 2.63-1.71 6.86-3.62a6.49 6.49 0 002.7-2.19 6.3 6.3 0 00-.5-7.69c-.35-.43-.7-.77-1-1.06.13.02.26.04.4.08.44.33.92.8 1.45 1.43a6.3 6.3 0 01.48 7.68zM27.08 19.2l.47.34c-.34-.12-.7-.3-1.07-.53l.23.08h.01a3 3 0 00.36.1zM28.83 7.84c-.15-.05-.3-.1-.44-.13a6 6 0 00-.4-.31l-.26-.17c.38.16.75.37 1.1.61z" fill="#777"/><path d="M32.2 13.08c.52 1.95.1 3.3-.68 4.29-.7.92-1.68 1.55-2.47 2.1-.38.28-.9.28-1.48.07h-.02l-.47-.34c.44.1.82.05 1.13-.17.78-.55 1.78-1.18 2.47-2.1.77-1 1.2-2.34.67-4.29a9.87 9.87 0 00-2.96-4.93l.44.13c1.57 1.12 2.78 3.1 3.36 5.24zM21.16 7.62c.13.75.1 1.45-.05 2.08l-.02.09-.07.23v.02a6.02 6.02 0 01-.84 1.75c-1.14 1.66-2.8 2.57-2.8 2.57a6.74 6.74 0 01-2.17-.18c-.44-.12-.81-.3-1.12-.53l.28.09c.58.16 1.28.23 2.16.18 0 0 1.67-.91 2.8-2.58a5.56 5.56 0 00.99-4.17c-.45-2.64-1.43-4.6-2.96-5.71l-.2-.14c.37.15.71.34 1.04.58 1.53 1.1 2.51 3.07 2.96 5.72M10.31 17.66c-.32.39-.74.7-1.26.94a3.93 3.93 0 01-2.71.3c-.4-.12-.78-.3-1.1-.53l.26.08c.78.22 1.69.16 2.7-.3.53-.23.95-.55 1.27-.94 1.72-2.03.79-5.9-1.1-8.74A6.6 6.6 0 007 6.94l-.21-.16c.34.13.7.32 1.05.6.46.36.91.86 1.36 1.53 1.9 2.84 2.83 6.71 1.1 8.75M9.22 23.52c.06.53.14 1.41.1 2.38v.09c0 .25-.02.51-.05.77v.1a5.11 5.11 0 01-1 2.7c-.36.43-.82.73-1.43.87a6.24 6.24 0 01-3.1 0 3.7 3.7 0 01-1.11-.54l.27.1c.89.26 1.92.24 3.1 0 .6-.14 1.07-.45 1.43-.87 1.34-1.6 1.1-4.78.95-6.05-.1-.8-.73-2.15-1.88-3.04l-.22-.17c.3.12.57.26.82.43l.24.18a5.07 5.07 0 011.88 3.05M11.92 41.74l.47.32c-.35-.14-.7-.31-1.05-.53l-.05-.03.26.11c.12.05.24.1.37.13M32.31 31.27a6.5 6.5 0 01-2.7 2.19c-4.22 1.91-4.44-.28-6.85 3.63-2.2 3.59-6.4 6.52-10.37 4.97l-.47-.32c3.86 1.24 7.86-1.62 10-5.1 2.4-3.9 2.63-1.71 6.86-3.62a6.49 6.49 0 002.7-2.19 6.3 6.3 0 00-.5-7.69c-.35-.43-.7-.77-1-1.06.13.02.26.04.4.08.44.33.92.8 1.45 1.43a6.3 6.3 0 01.48 7.68z" fill="#777"/><path d="M27.08 19.2l.47.34c-.34-.12-.7-.3-1.07-.53l.23.08h.01a3 3 0 00.36.1zM28.83 7.84c-.15-.05-.3-.1-.44-.13a6 6 0 00-.4-.31l-.26-.17c.38.16.75.37 1.1.61z" fill="#777"/><path d="M32.2 13.08c.52 1.95.1 3.3-.68 4.29-.7.92-1.68 1.55-2.47 2.1-.38.28-.9.28-1.48.07h-.02l-.47-.34c.44.1.82.05 1.13-.17.78-.55 1.78-1.18 2.47-2.1.77-1 1.2-2.34.67-4.29a9.87 9.87 0 00-2.96-4.93l.44.13c1.57 1.12 2.78 3.1 3.36 5.24zM21.16 7.62c.13.75.1 1.45-.05 2.08l-.02.09-.07.23v.02a6.02 6.02 0 01-.84 1.75c-1.14 1.66-2.8 2.57-2.8 2.57a6.74 6.74 0 01-2.17-.18c-.44-.12-.81-.3-1.12-.53l.28.09c.58.16 1.28.23 2.16.18 0 0 1.67-.91 2.8-2.58a5.56 5.56 0 00.99-4.17c-.45-2.64-1.43-4.6-2.96-5.71l-.2-.14c.37.15.71.34 1.04.58 1.53 1.1 2.51 3.07 2.96 5.72M10.31 17.66c-.32.39-.74.7-1.26.94a3.93 3.93 0 01-2.71.3c-.4-.12-.78-.3-1.1-.53l.26.08c.78.22 1.69.16 2.7-.3.53-.23.95-.55 1.27-.94 1.72-2.03.79-5.9-1.1-8.74A6.6 6.6 0 007 6.94l-.21-.16c.34.13.7.32 1.05.6.46.36.91.86 1.36 1.53 1.9 2.84 2.83 6.71 1.1 8.75M9.22 23.52c.06.53.14 1.41.1 2.38v.09c0 .25-.02.51-.05.77v.1a5.11 5.11 0 01-1 2.7c-.36.43-.82.73-1.43.87a6.24 6.24 0 01-3.1 0 3.7 3.7 0 01-1.11-.54l.27.1c.89.26 1.92.24 3.1 0 .6-.14 1.07-.45 1.43-.87 1.34-1.6 1.1-4.78.95-6.05-.1-.8-.73-2.15-1.88-3.04l-.22-.17c.3.12.57.26.82.43l.24.18a5.07 5.07 0 011.88 3.05" fill="#777"/><path d="M16.48 20.76s-1.28.22-1.5 2.24c-.2 2.02-1.14 6.28 2.68 5 3.82-1.27 4.89-2.23 4.57-3.62-.32-1.38-2.45-4.9-5.75-3.62zM25.53 25.1s2.24-1.89 3.4-.18c1.18 1.7 2.34 3.94-.1 4.79-2.45.85-4.79-.58-3.3-4.6zM10.52 34.4c0-.87 2.77-4.48 5.75-3.41 2.98 1.06 1.38 3.08 1.6 4.25.2 1.18-.86 5.33-3.3 4.48-2.46-.86-4.05-2.45-4.05-5.33z" fill="#2F2F2F"/></svg>